<?xml version="1.0" standalone="no"?><!DOCTYPE svg PUBLIC "-//W3C//DTD SVG 1.1//EN" "http://www.w3.org/Graphics/SVG/1.1/DTD/svg11.dtd"><svg t="1583646475104" class="icon" viewBox="0 0 1024 1024" version="1.1" xmlns="http://www.w3.org/2000/svg" p-id="3801" width="32" height="32" xmlns:xlink="http://www.w3.org/1999/xlink"><defs><style type="text/css"></style></defs><path d="M756.652 877.233c-29.56 0-53.603-24.961-53.603-55.682 0-30.695 24.043-55.682 53.603-55.682 29.513 0 53.58 24.987 53.58 55.682 0 30.72-24.067 55.682-53.58 55.682z m0-142.826c-46.254 0-83.877 39.099-83.877 87.144 0 48.046 37.623 87.169 83.877 87.169 46.232 0 83.854-39.123 83.854-87.169 0-48.045-37.622-87.144-83.854-87.144zM465.877 877.233c-29.536 0-53.58-24.961-53.58-55.682 0-30.695 24.044-55.682 53.58-55.682 29.56 0 53.604 24.987 53.604 55.682 0 30.72-24.043 55.682-53.604 55.682z m0-142.826c-46.255 0-83.853 39.099-83.853 87.144 0 48.046 37.598 87.169 83.853 87.169 46.255 0 83.877-39.123 83.877-87.169 0-48.045-37.622-87.144-83.877-87.144z m460.765-333.154l-97.599 225.225-2.711-0.741-4.376 16.88c-3.068 11.912-13.436 20.192-26.326 20.192-0.071 0-0.119-0.025-0.19-0.025l-19.43-0.593 0.072 0.914H418.695l-18.407-0.222c-11.89 0-22.33-8.354-25.422-20.266l-4.447-16.83-2.616 0.691-98.194-226.337c-0.095-0.198-11.13-20.736-18.478-43.498L206.59 256.425H99.929c-14.197 0-25.779-12.06-25.779-26.84s11.582-26.816 25.78-26.816l124.519 0.149 3.091 0.346c1.332 0.222 2.592 0.617 4.685 1.31 1.308 0.518 2.568 1.161 4.471 2.249 1.165 0.79 2.307 1.705 3.948 3.163 1.094 1.038 2.092 2.224 3.353 3.855 1.355 1.928 2.378 3.831 3.472 6.649l40.048 89.912h650.326c8.038 0 9.513 2.496 10.083 3.485 7.349 12.604-4.922 54.99-21.284 87.366z m50.512-105.705c-5.446-9.44-16.766-20.661-39.311-20.661H309.348l-30.535-68.46c-1.808-4.72-4.28-9.268-7.92-14.384-2.163-2.966-4.518-5.684-8.37-9.317a63.418 63.418 0 0 0-7.943-6.08l-1.522-0.915c-2.807-1.68-5.732-3.188-8.752-4.325l-1.998-0.667c-2.949-1.063-5.921-1.928-8.989-2.447l-4.328-0.519c-1.903-0.296-3.781-0.494-5.755-0.494H99.929C66.897 167.279 40 195.231 40 229.585c0 34.353 26.897 62.306 59.93 62.306h84.851l34.293 77.035c8.347 25.481 20.143 47.452 20.19 47.452l84.71 197.594c0.69 1.582 1.522 3.04 2.71 5.018l15.792 34.946c6.088 20.612 21.855 36.207 41.189 41.966l-0.19 2.718h411.49l18.834-0.37-0.214-2.472c19.144-5.833 34.721-21.403 40.761-41.842l102.855-236.84c7.063-13.89 41.142-85.094 19.953-121.548z" p-id="3802"></path></svg>