<?xml version="1.0" standalone="no"?><!DOCTYPE svg PUBLIC "-//W3C//DTD SVG 1.1//EN" "http://www.w3.org/Graphics/SVG/1.1/DTD/svg11.dtd"><svg t="1584022428809" class="icon" viewBox="0 0 1024 1024" version="1.1" xmlns="http://www.w3.org/2000/svg" p-id="2569" xmlns:xlink="http://www.w3.org/1999/xlink" width="32" height="32"><defs><style type="text/css"></style></defs><path d="M916.78821 267.381723c39.903825 69.832462 59.855226 149.637042 59.855226 229.442646s-19.951401 159.611208-59.855226 229.442646c-39.903825 69.832462-99.758028 119.711476-159.613254 159.611208-69.830415 39.905872-149.637042 59.852156-229.444692 59.852156s-159.613254-19.952424-229.444692-59.852156c-69.830415-39.905872-119.709429-99.758028-159.613254-159.611208-39.903825-69.832462-59.855226-149.637042-59.855226-229.442646s19.951401-159.611208 59.855226-229.442646 99.758028-119.711476 159.613254-159.611208C368.115985 67.864644 447.922612 47.918359 527.730263 47.918359s159.613254 19.952424 229.444692 59.852156C827.00537 147.676387 876.884384 197.555401 916.78821 267.381723zM757.174955 387.092176c0-29.92659-9.975189-69.832462-29.927613-99.758028-19.951401-29.92659-49.879014-49.879014-79.806627-69.832462-29.927613-19.952424-69.830415-19.952424-99.758028-19.952424-99.758028 0-169.588443 39.905872-219.46848 129.684618-9.976212 9.973142 0 19.952424 0 19.952424l79.806627 59.852156 9.976212 0c9.975189 0 9.975189 0 9.975189-9.973142 19.951401-29.92659 39.903825-39.905872 49.879014-49.879014 9.976212-9.973142 29.927613-9.973142 49.879014-9.973142 19.951401 0 39.903825 9.973142 49.879014 19.952424 9.975189 9.973142 19.951401 19.952424 19.951401 29.92659 0 9.973142 0 29.92659-9.976212 39.905872-9.975189 9.979282-19.951401 19.952424-39.903825 29.92659-19.951401 9.973142-49.879014 29.92659-69.830415 49.879014-19.951401 19.952424-29.927613 49.879014-29.927613 69.832462l0 19.952424c0 9.973142 0 9.973142 9.976212 9.973142l9.975189 9.973142 109.73424 0c9.975189 0 9.975189 0 9.975189-9.973142l9.975189-9.973142c0-9.973142 0-19.952424 9.975189-29.92659 9.976212-9.973142 19.951401-19.952424 29.927613-29.92659 9.975189-9.973142 19.951401-9.973142 29.927613-19.952424 9.975189 0 19.951401-9.973142 29.927613-19.952424 9.975189-9.973142 19.951401-19.952424 29.927613-29.92659 9.976212-9.973142 9.975189-19.952424 19.951401-39.905872C747.198743 417.018765 757.174955 397.071458 757.174955 387.092176zM607.537913 776.152169 607.537913 666.420999c0-9.973142 0-9.973142-9.975189-9.973142l-9.975189-9.973142L477.852272 646.474714c-9.975189 0-9.975189 0-9.975189 9.973142l-9.976212 9.973142 0 109.732194c0 9.973142 0 9.973142 9.976212 9.973142l9.975189 9.973142 109.73424 0c9.975189 0 9.975189 0 9.975189-9.973142C597.561701 786.125311 607.537913 786.125311 607.537913 776.152169z" p-id="2570" fill="#d81e06"></path></svg>