<?xml version="1.0" standalone="no"?><!DOCTYPE svg PUBLIC "-//W3C//DTD SVG 1.1//EN" "http://www.w3.org/Graphics/SVG/1.1/DTD/svg11.dtd"><svg t="1583646594076" class="icon" viewBox="0 0 1024 1024" version="1.1" xmlns="http://www.w3.org/2000/svg" p-id="5066" xmlns:xlink="http://www.w3.org/1999/xlink" width="32" height="32"><defs><style type="text/css"></style></defs><path d="M510.976 57.344C635.904 57.344 737.28 158.72 737.28 283.648S634.88 509.952 510.976 509.952s-226.304-101.376-226.304-226.304S386.048 57.344 510.976 57.344m0-45.056C360.448 12.288 238.592 133.12 238.592 283.648c0 149.504 121.856 271.36 271.36 271.36s271.36-121.856 271.36-271.36C782.336 133.12 660.48 12.288 510.976 12.288z" fill="#2D2D2D" p-id="5067"></path><path d="M964.608 1007.616H59.392c-12.288 0-22.528-10.24-22.528-22.528 0-262.144 212.992-475.136 475.136-475.136 12.288 0 22.528 10.24 22.528 22.528s-10.24 22.528-22.528 22.528C282.624 555.008 94.208 735.232 82.944 962.56H942.08c-8.192-146.432-90.112-279.552-218.112-352.256-11.264-6.144-14.336-19.456-8.192-30.72 6.144-11.264 19.456-14.336 30.72-8.192C894.976 655.36 987.136 814.08 987.136 985.088c0 12.288-10.24 22.528-22.528 22.528z" fill="#2D2D2D" p-id="5068"></path></svg>